<svg width="21" height="17" viewBox="0 0 21 17" fill="none" xmlns="http://www.w3.org/2000/svg">
<path fill-rule="evenodd" clip-rule="evenodd" d="M18.4608 0.000488281H2.39799C1.29367 0.000488281 0.390137 0.83174 0.390137 1.84771V14.7783C0.390137 15.7943 1.29367 16.6255 2.39799 16.6255H18.4608C19.5651 16.6255 20.4687 15.7943 20.4687 14.7783V1.84771C20.4687 0.83174 19.5651 0.000488281 18.4608 0.000488281ZM7.41763 12.9311H4.40585C3.85369 12.9311 3.40192 12.5154 3.40192 12.0075C3.40192 11.4995 3.85369 11.0838 4.40585 11.0838H7.41763C7.96979 11.0838 8.42155 11.4995 8.42155 12.0075C8.42155 12.5154 7.96979 12.9311 7.41763 12.9311ZM7.41763 9.23662H4.40585C3.85369 9.23662 3.40192 8.82099 3.40192 8.313C3.40192 7.80502 3.85369 7.38939 4.40585 7.38939H7.41763C7.96979 7.38939 8.42155 7.80502 8.42155 8.313C8.42155 8.82099 7.96979 9.23662 7.41763 9.23662ZM7.41763 5.54217H4.40585C3.85369 5.54217 3.40192 5.12654 3.40192 4.61855C3.40192 4.11057 3.85369 3.69494 4.40585 3.69494H7.41763C7.96979 3.69494 8.42155 4.11057 8.42155 4.61855C8.42155 5.12654 7.96979 5.54217 7.41763 5.54217ZM17.1557 7.50022L13.9733 10.4281C13.5817 10.7883 12.9392 10.7883 12.5477 10.4281L11.1322 9.11655C10.7406 8.75634 10.7406 8.17446 11.1322 7.81425C11.5237 7.45404 12.1562 7.45404 12.5477 7.81425L13.2605 8.47002L15.7402 6.18869C16.1317 5.82849 16.7642 5.82849 17.1557 6.18869L17.1658 6.19793C17.5473 6.55814 17.5473 7.14925 17.1557 7.50022Z" fill="#007AFF"/>
</svg>
