<svg width="14" height="19" viewBox="0 0 14 19" fill="none" xmlns="http://www.w3.org/2000/svg">
<path d="M7.18069 0.91748C6.75583 0.91748 6.32173 0.954425 5.88763 1.04679C3.33846 1.5363 1.30651 3.59596 0.826233 6.14513C0.382899 8.55576 1.26957 10.7724 2.87665 12.204C3.27381 12.555 3.48624 13.0445 3.48624 13.5617V15.6953C3.48624 16.7113 4.31749 17.5425 5.33346 17.5425H5.59208C5.91534 18.0967 6.49722 18.4661 7.18069 18.4661C7.86416 18.4661 8.45528 18.0967 8.7693 17.5425H9.02792C10.0439 17.5425 10.8751 16.7113 10.8751 15.6953V13.5617C10.8751 13.0538 11.0783 12.555 11.4663 12.2133C12.8055 11.031 13.646 9.30389 13.646 7.38277C13.646 3.80839 10.7551 0.91748 7.18069 0.91748ZM7.6425 11.0772H6.71888V8.68507L5.02867 7.00409L5.68444 6.34833L7.18069 7.84458L8.67694 6.34833L9.33271 7.00409L7.6425 8.6943V11.0772V11.0772ZM8.56611 15.6953C8.55687 15.6953 8.54764 15.6861 8.5384 15.6861V15.6953H5.82298V15.6861C5.81374 15.6861 5.80451 15.6953 5.79527 15.6953C5.53666 15.6953 5.33346 15.4921 5.33346 15.2335C5.33346 14.9749 5.53666 14.7717 5.79527 14.7717C5.80451 14.7717 5.81374 14.7809 5.82298 14.7809V14.7717H8.5384V14.7809C8.54764 14.7809 8.55687 14.7717 8.56611 14.7717C8.82472 14.7717 9.02792 14.9749 9.02792 15.2335C9.02792 15.4921 8.82472 15.6953 8.56611 15.6953ZM8.56611 13.8481H5.79527C5.53666 13.8481 5.33346 13.6449 5.33346 13.3863C5.33346 13.1276 5.53666 12.9244 5.79527 12.9244H8.56611C8.82472 12.9244 9.02792 13.1276 9.02792 13.3863C9.02792 13.6449 8.82472 13.8481 8.56611 13.8481Z" fill="#1B59F8"/>
</svg>
